<?xml version="1.0" standalone="no"?>
<!DOCTYPE svg PUBLIC "-//W3C//DTD SVG 20010904//EN"
 "http://www.w3.org/TR/2001/REC-SVG-20010904/DTD/svg10.dtd">
<svg version="1.0" xmlns="http://www.w3.org/2000/svg"
 width="192.000000pt" height="192.000000pt" viewBox="0 0 192.000000 192.000000"
 preserveAspectRatio="xMidYMid meet">
<metadata>
Created by potrace 1.14, written by Peter Selinger 2001-2017
</metadata>
<g transform="translate(0.000000,192.000000) scale(0.100000,-0.100000)"
fill="#000000" stroke="none">
<path d="M884 1810 c-53 -11 -155 -53 -213 -87 -25 -15 -59 -34 -76 -41 -38
-17 -181 -165 -206 -214 -23 -45 -27 -165 -11 -373 5 -70 4 -115 -2 -124 -7
-9 -6 -17 5 -25 18 -13 35 -96 19 -96 -18 0 -11 -28 31 -111 35 -71 44 -103
61 -214 12 -79 29 -150 43 -182 24 -54 111 -156 125 -148 5 3 34 -17 65 -44
82 -72 158 -86 297 -55 56 13 80 24 113 55 23 22 49 39 57 39 23 0 100 54 144
101 64 68 82 107 100 215 10 54 19 100 20 102 1 2 11 -1 22 -7 28 -15 52 10
52 52 1 18 7 43 15 57 8 14 15 36 15 50 0 14 7 34 15 44 8 11 15 32 15 47 0
14 6 44 13 65 8 22 11 50 7 64 -5 22 -12 25 -48 24 -23 0 -42 0 -42 1 0 2 7
19 15 39 14 33 14 40 -1 72 -14 30 -15 41 -5 75 11 35 9 48 -15 117 -29 84
-66 164 -107 228 -42 67 -133 159 -177 179 -35 16 -44 16 -68 4 -15 -7 -30
-15 -34 -17 -5 -2 -8 5 -8 15 0 22 -26 55 -60 76 -31 19 -122 28 -176 17z
m298 -313 c82 -82 148 -193 155 -263 8 -75 -3 -124 -27 -124 -11 0 -20 4 -20
9 0 17 -49 21 -176 11 -153 -12 -164 -15 -164 -43 0 -13 -8 -30 -19 -39 -10
-8 -20 -20 -22 -25 -2 -6 -35 -13 -72 -16 l-68 -6 7 34 6 35 -68 2 c-87 3
-182 0 -213 -8 -20 -4 -22 -3 -13 8 7 10 8 27 1 56 -24 109 39 274 121 317 37
19 166 35 286 35 116 0 172 16 199 56 8 13 17 24 19 24 3 0 33 -28 68 -63z
m123 -428 c-4 -5 1 -19 10 -29 22 -24 12 -116 -13 -129 -24 -12 -172 -31 -251
-32 -56 0 -62 -2 -43 -11 17 -9 55 -8 145 1 120 13 171 28 180 53 10 27 30
-50 31 -117 0 -71 -10 -102 -46 -141 -19 -22 -19 -22 2 -65 12 -23 25 -69 27
-100 5 -50 2 -66 -23 -115 -16 -31 -57 -86 -91 -123 -56 -59 -62 -63 -63 -41
l0 25 -18 -21 c-26 -32 -72 -59 -131 -79 -112 -37 -279 0 -326 71 -12 19 -19
23 -25 14 -12 -20 -56 47 -80 124 -18 54 -21 84 -18 143 5 70 4 76 -25 111
-41 51 -67 110 -67 155 l0 37 58 0 c31 0 94 6 140 14 90 15 106 26 118 84 3
18 10 35 15 38 14 8 10 -68 -6 -122 -17 -57 -19 -100 -5 -109 6 -4 10 5 10 20
0 14 8 53 17 86 14 49 15 70 6 112 -6 29 -9 54 -8 55 2 2 22 6 44 9 40 5 41 5
42 -23 2 -64 19 -127 19 -70 l0 28 19 -23 c28 -35 37 -16 16 31 -18 40 -18 41
2 62 25 25 48 16 33 -12 -14 -27 -13 -30 15 -28 19 2 24 7 19 20 -4 14 0 18
16 18 17 0 21 -5 17 -20 -5 -19 0 -20 64 -20 39 0 69 4 69 10 0 6 -8 10 -17
10 -14 0 -14 3 -5 12 9 9 15 9 20 2 4 -5 18 -11 30 -11 17 -1 22 2 18 13 -3 9
-6 20 -6 25 0 5 -51 9 -112 9 -103 1 -111 2 -88 15 17 10 57 14 126 15 81 0
103 3 108 15 3 8 13 15 21 15 9 0 13 -5 10 -11z m-345 -50 c-7 -11 -14 -18
-17 -15 -8 8 5 36 17 36 7 0 7 -6 0 -21z m-305 -39 c-11 -5 -36 -11 -55 -14
-20 -4 -41 -15 -48 -27 -8 -12 -9 -18 -2 -14 7 4 9 -1 5 -18 -6 -22 -4 -23 25
-19 24 3 28 7 20 17 -8 9 -8 15 0 20 14 8 32 -4 27 -19 -3 -8 11 -10 54 -6 66
6 89 21 71 43 -13 15 -6 27 15 27 16 0 17 -26 1 -83 l-11 -44 -76 -11 c-42 -7
-103 -15 -135 -18 l-59 -7 7 27 c4 15 2 26 -3 26 -6 0 -8 7 -5 15 5 11 0 14
-17 13 -22 -3 -24 1 -24 37 l0 40 45 2 c25 0 68 6 95 11 28 5 59 10 70 10 l20
1 -20 -9z m938 -12 c3 -12 2 -29 -4 -37 -8 -13 -9 -12 -4 6 3 12 1 24 -4 28
-16 9 -66 -20 -85 -50 -22 -33 -16 -42 9 -15 22 25 55 26 55 3 0 -16 2 -16 10
-3 8 11 9 8 6 -15 -2 -16 -5 -38 -5 -47 -2 -31 -21 -20 -21 11 0 42 -20 50
-21 9 0 -31 -1 -31 -10 -9 -7 19 -12 21 -24 11 -10 -9 -12 -18 -4 -37 6 -18 6
-36 0 -56 -9 -24 -8 -28 4 -23 17 6 21 -9 5 -19 -16 -10 -12 -28 5 -21 18 6
18 5 5 -29 -7 -17 -16 -25 -28 -23 -15 3 -17 15 -14 108 5 178 10 208 41 219
47 17 78 13 84 -11z m-923 -32 c0 -3 -4 -8 -10 -11 -5 -3 -10 -1 -10 4 0 6 5
11 10 11 6 0 10 -2 10 -4z m-235 -106 c3 -5 -1 -10 -10 -10 -9 0 -13 5 -10 10
3 6 8 10 10 10 2 0 7 -4 10 -10z"/>
<path d="M1006 751 c-3 -4 6 -13 19 -19 25 -12 33 -36 15 -47 -5 -3 -10 1 -10
9 0 23 -35 20 -94 -8 -69 -32 -92 -36 -113 -20 -35 26 -70 16 -64 -19 1 -5 -4
-7 -11 -5 -20 7 -21 43 -3 62 24 24 14 39 -13 21 -17 -13 -22 -26 -22 -60 0
-24 4 -46 9 -49 4 -3 45 -8 91 -10 67 -4 91 -1 124 13 23 10 59 22 81 26 54 9
76 31 68 64 -3 14 -10 32 -16 39 -11 14 -53 16 -61 3z"/>
<path d="M917 717 c-14 -14 -29 -18 -58 -15 -24 2 -38 0 -36 -7 5 -16 80 -18
101 -2 10 7 17 20 15 28 -3 12 -7 11 -22 -4z"/>
<path d="M1110 677 c0 -21 32 -66 65 -92 26 -19 35 -33 32 -46 -3 -11 -1 -17
4 -13 5 3 9 18 9 33 0 21 -8 31 -35 44 -19 9 -44 31 -55 49 -11 18 -20 29 -20
25z"/>
<path d="M670 619 c-8 -17 -25 -45 -38 -61 -22 -26 -23 -32 -12 -56 l13 -27 8
42 c4 22 17 60 29 83 12 23 19 44 17 46 -2 3 -10 -10 -17 -27z"/>
<path d="M1102 510 c-83 -37 -283 -51 -367 -25 -50 15 -65 13 -65 -9 0 -8 12
-13 28 -13 15 -1 70 -9 122 -19 95 -17 95 -17 170 5 41 12 92 29 114 37 21 8
47 12 59 8 16 -5 19 -3 14 11 -4 9 -7 19 -7 21 0 8 -26 2 -68 -16z"/>
<path d="M980 423 c-43 -9 -90 -13 -140 -9 -53 4 -71 3 -63 -5 39 -39 227 -28
263 17 7 7 11 14 9 13 -2 -1 -33 -8 -69 -16z"/>
<path d="M870 299 c0 -19 4 -21 36 -16 20 3 39 8 41 11 12 12 -11 26 -43 26
-28 0 -34 -4 -34 -21z"/>
<path d="M1397 347 c-15 -28 -36 -58 -47 -65 -11 -7 -20 -19 -20 -27 0 -8 -5
-15 -11 -15 -14 0 -38 -30 -39 -47 0 -7 5 -13 10 -13 6 0 10 9 10 21 0 11 5
17 10 14 6 -3 13 1 16 9 3 9 12 16 19 16 8 0 17 9 20 20 3 11 11 20 16 20 5 0
9 5 9 11 0 6 9 18 20 27 11 10 21 26 23 37 1 11 6 26 10 33 5 7 3 12 -6 12 -7
0 -26 -24 -40 -53z"/>
</g>
</svg>
